<svg height="56" viewBox="0 0 82 56" width="82" xmlns="http://www.w3.org/2000/svg"><path d="m0 0h82v56h-82z" fill="none"/><path d="m82 11.5v31c0 .8284-.6716 1.5-1.5 1.5h-29.4999v-6s29.4999 0 29.4999 0v-26c0-.2762-.2239-.5-.5-.5h-46c-.2761 0-.5.2238-.5.5v11h-1.5v-11.5c0-.8284.6716-1.5 1.5-1.5h47c.8284 0 1.5.6716 1.5 1.5zm-30.9999 36.5h4v2.2122c0 .7357-.3453 1.3721-.8817 1.7878h8.8816v-7.5h-11.9999zm-1.0002 1v-23c0-1.1046-.8954-2-2-2h-34c-1.1046 0-2 .8954-2 2v18h1.0001v-18c0-.2757.2242-.5.5-.5h14.9999v.06c0 .5192.4209.94.9399.94h2.6202c.519 0 .9399-.4208.9399-.94v-.06h14.9999c.2758 0 .5.2243.5.5v23h-29.4998v1.4116c0 .4219-.168.8036-.4374 1.0884h28.4374l.2144.5h2.5713l.2144-.5h2.6572c.7415 0 1.3428-.5461 1.3428-1.2878v-1.2122zm-49.9999-4h18v5.4116c0 .325-.2634.5884-.5884.5884h-.4116l-1 1h-14l-1-1h-.4116c-.325 0-.5884-.2634-.5884-.5884zm13 4.875c0 .3452.2798.625.625.625s.625-.2798.625-.625-.2798-.625-.625-.625-.625.2798-.625.625z" fill="#1d1d1f"/></svg>